<svg width="40" height="41" viewBox="0 0 40 41" fill="none" xmlns="http://www.w3.org/2000/svg">
<circle cx="20" cy="20.5" r="20" fill="#D5E3FD"/>
<g clip-path="url(#clip0_399_423)">
<path d="M13 15.5H14C14.5304 15.5 15.0391 15.2893 15.4142 14.9142C15.7893 14.5391 16 14.0304 16 13.5C16 13.2348 16.1054 12.9804 16.2929 12.7929C16.4804 12.6054 16.7348 12.5 17 12.5H23C23.2652 12.5 23.5196 12.6054 23.7071 12.7929C23.8946 12.9804 24 13.2348 24 13.5C24 14.0304 24.2107 14.5391 24.5858 14.9142C24.9609 15.2893 25.4696 15.5 26 15.5H27C27.5304 15.5 28.0391 15.7107 28.4142 16.0858C28.7893 16.4609 29 16.9696 29 17.5V26.5C29 27.0304 28.7893 27.5391 28.4142 27.9142C28.0391 28.2893 27.5304 28.5 27 28.5H13C12.4696 28.5 11.9609 28.2893 11.5858 27.9142C11.2107 27.5391 11 27.0304 11 26.5V17.5C11 16.9696 11.2107 16.4609 11.5858 16.0858C11.9609 15.7107 12.4696 15.5 13 15.5" stroke="#506DF5" stroke-width="1.5" stroke-linecap="round" stroke-linejoin="round"/>
<path d="M20 24.5C21.6569 24.5 23 23.1569 23 21.5C23 19.8431 21.6569 18.5 20 18.5C18.3431 18.5 17 19.8431 17 21.5C17 23.1569 18.3431 24.5 20 24.5Z" stroke="#506DF5" stroke-width="1.5" stroke-linecap="round" stroke-linejoin="round"/>
</g>
<defs>
<clipPath id="clip0_399_423">
<rect width="24" height="24" fill="white" transform="translate(8 8.5)"/>
</clipPath>
</defs>
</svg>
