<svg width="20" height="15" viewBox="0 0 20 15" fill="none" xmlns="http://www.w3.org/2000/svg">
<g clip-path="url(#clip0_27_37)">
<path d="M0.444096 1.4784L9.6416 7.60811L18.8333 1.4784C18.922 1.41936 19.0212 1.37767 19.1254 1.35564C18.9684 0.956501 18.695 0.613814 18.3407 0.37206C17.9864 0.130307 17.5676 0.000688976 17.1387 0H2.13868C1.71013 0.0022702 1.29204 0.132507 0.938042 0.374057C0.584047 0.615607 0.310299 0.957419 0.151926 1.35564C0.256209 1.37767 0.355357 1.41936 0.444096 1.4784Z" fill="#66768D"/>
<path d="M10.0857 9.23836C9.9545 9.3296 9.79852 9.37852 9.6387 9.37852C9.47888 9.37852 9.32288 9.3296 9.19167 9.23836L3.54048e-07 3.10864V12.8555C-0.000768357 13.1368 0.0539835 13.4155 0.161118 13.6757C0.268253 13.9358 0.425667 14.1723 0.624339 14.3715C0.82301 14.5707 1.05904 14.7288 1.3189 14.8366C1.57876 14.9444 1.85734 14.9999 2.13869 14.9999H17.1387C17.7075 14.9999 18.2529 14.7741 18.6551 14.3719C19.0573 13.9697 19.2832 13.4242 19.2832 12.8555V3.10864L10.0857 9.23836Z" fill="#66768D"/>
</g>
<defs>
<clipPath id="clip0_27_37">
<rect width="19.2832" height="15" fill="white"/>
</clipPath>
</defs>
</svg>
