<svg width="40" height="41" viewBox="0 0 40 41" fill="none" xmlns="http://www.w3.org/2000/svg">
<circle cx="20" cy="20.5" r="20" fill="#D5E3FD"/>
<g clip-path="url(#clip0_294_1204)">
<path d="M17 12.25H20L22 14.25H27C27.5304 14.25 28.0391 14.4607 28.4142 14.8358C28.7893 15.2109 29 15.7196 29 16.25V23.25C29 23.7804 28.7893 24.2891 28.4142 24.6642C28.0391 25.0393 27.5304 25.25 27 25.25H17C16.4696 25.25 15.9609 25.0393 15.5858 24.6642C15.2107 24.2891 15 23.7804 15 23.25V14.25C15 13.7196 15.2107 13.2109 15.5858 12.8358C15.9609 12.4607 16.4696 12.25 17 12.25Z" stroke="#2972FF" stroke-width="1.5" stroke-linecap="round" stroke-linejoin="round"/>
<path d="M25 25.25V27.25C25 27.7804 24.7893 28.2891 24.4142 28.6642C24.0391 29.0393 23.5304 29.25 23 29.25H13C12.4696 29.25 11.9609 29.0393 11.5858 28.6642C11.2107 28.2891 11 27.7804 11 27.25V18.25C11 17.7196 11.2107 17.2109 11.5858 16.8358C11.9609 16.4607 12.4696 16.25 13 16.25H15" stroke="#2972FF" stroke-width="1.5" stroke-linecap="round" stroke-linejoin="round"/>
</g>
<defs>
<clipPath id="clip0_294_1204">
<rect width="24" height="24" fill="white" transform="translate(8 8.25)"/>
</clipPath>
</defs>
</svg>
