<svg width="18" height="20" viewBox="0 0 18 20" fill="none" xmlns="http://www.w3.org/2000/svg">
<g clip-path="url(#clip0_26_225)">
<path d="M14.7713 2.53767C13.1479 0.91526 10.9467 0.00390625 8.65155 0.00390625C6.3564 0.00390625 4.15518 0.91526 2.53176 2.53767C0.908989 4.1621 -0.0025816 6.3643 -0.0025816 8.66042C-0.0025816 10.9565 0.908989 13.1587 2.53176 14.7832L7.12302 19.3745C7.52996 19.7792 8.08059 20.0063 8.6545 20.0063C9.22842 20.0063 9.77898 19.7792 10.1859 19.3745L14.7713 14.7832C15.5763 13.9796 16.2149 13.0253 16.6506 11.9746C17.0863 10.924 17.3105 9.79779 17.3105 8.66042C17.3105 7.52304 17.0863 6.39679 16.6506 5.34618C16.2149 4.29557 15.5763 3.34123 14.7713 2.53767ZM8.65155 11.9032C7.79119 11.9016 6.96648 11.5592 6.35811 10.9508C5.74975 10.3425 5.40732 9.51775 5.40576 8.65739C5.40576 7.79655 5.74768 6.97107 6.35638 6.36237C6.96509 5.75366 7.79071 5.4116 8.65155 5.4116C9.51239 5.4116 10.3379 5.75366 10.9466 6.36237C11.5554 6.97107 11.8973 7.79655 11.8973 8.65739C11.8973 9.51823 11.5554 10.3439 10.9466 10.9526C10.3379 11.5613 9.51239 11.9032 8.65155 11.9032Z" fill="#64748B"/>
</g>
<defs>
<clipPath id="clip0_26_225">
<rect width="17.3089" height="20" fill="white"/>
</clipPath>
</defs>
</svg>
