<svg width="40" height="40" viewBox="0 0 40 40" fill="none" xmlns="http://www.w3.org/2000/svg">
<rect width="40" height="40" rx="5" fill="#DDEAFF"/>
<g clip-path="url(#clip0_322_375)">
<path d="M20 8.75C22.9198 11.3332 26.7306 12.6782 30.625 12.5C31.192 14.4288 31.3655 16.4518 31.1352 18.449C30.9048 20.4461 30.2754 22.3766 29.2843 24.1257C28.2931 25.8747 26.9605 27.4067 25.3656 28.6306C23.7707 29.8545 21.946 30.7453 20 31.25C18.054 30.7453 16.2294 29.8545 14.6344 28.6306C13.0395 27.4067 11.7069 25.8747 10.7158 24.1257C9.72461 22.3766 9.09517 20.4461 8.86485 18.449C8.63453 16.4518 8.80802 14.4288 9.37501 12.5C13.2694 12.6782 17.0802 11.3332 20 8.75" stroke="#2972FF" stroke-width="1.5" stroke-linecap="round" stroke-linejoin="round"/>
<path d="M20 20C20.6904 20 21.25 19.4404 21.25 18.75C21.25 18.0596 20.6904 17.5 20 17.5C19.3096 17.5 18.75 18.0596 18.75 18.75C18.75 19.4404 19.3096 20 20 20Z" stroke="#2972FF" stroke-width="1.5" stroke-linecap="round" stroke-linejoin="round"/>
<path d="M20 20V23.125" stroke="#2972FF" stroke-width="1.5" stroke-linecap="round" stroke-linejoin="round"/>
</g>
<defs>
<clipPath id="clip0_322_375">
<rect width="30" height="30" fill="white" transform="translate(5 5)"/>
</clipPath>
</defs>
</svg>
