<svg width="16" height="20" viewBox="0 0 16 20" fill="none" xmlns="http://www.w3.org/2000/svg">
<g clip-path="url(#clip0_27_30)">
<path d="M7.93571 10.5857C10.8589 10.5857 13.2286 8.21602 13.2286 5.29286C13.2286 2.36969 10.8589 0 7.93571 0C5.01255 0 2.64285 2.36969 2.64285 5.29286C2.64285 8.21602 5.01255 10.5857 7.93571 10.5857Z" fill="#66768D"/>
<path d="M0 19.9999V17.3571C0 16.662 0.136906 15.9738 0.402897 15.3316C0.668888 14.6894 1.05876 14.1059 1.55025 13.6144C2.04174 13.1229 2.62521 12.7331 3.26736 12.4671C3.90952 12.2011 4.59779 12.0642 5.29286 12.0642H10.5857C11.2808 12.0642 11.969 12.2011 12.6112 12.4671C13.2534 12.7331 13.8368 13.1229 14.3283 13.6144C14.8198 14.1059 15.2097 14.6894 15.4757 15.3316C15.7417 15.9738 15.8786 16.662 15.8786 17.3571V19.9999H0Z" fill="#66768D"/>
</g>
<defs>
<clipPath id="clip0_27_30">
<rect width="15.8714" height="20" fill="white"/>
</clipPath>
</defs>
</svg>
