<svg width="18" height="18" viewBox="0 0 18 18" fill="none" xmlns="http://www.w3.org/2000/svg">
<g clip-path="url(#clip0_27_34)">
<path d="M2.11358 0H6.35228L8.46584 5.2955L5.821 6.88357C6.95506 9.18214 8.81667 11.0417 11.1165 12.1733L12.7045 9.52839L17.9942 11.6478V15.8807C17.9942 16.4417 17.7717 16.9799 17.3755 17.3772C16.9793 17.7745 16.4418 17.9985 15.8807 18C11.7512 17.7482 7.85656 15.9943 4.93116 13.0689C2.00577 10.1435 0.251806 6.24884 2.31485e-05 2.11937C-0.000736536 1.84133 0.0533724 1.56587 0.159249 1.30877C0.265126 1.05168 0.420674 0.817989 0.617013 0.621114C0.813352 0.424238 1.04661 0.268007 1.30342 0.161429C1.56023 0.0548511 1.83553 -1.03781e-06 2.11358 0Z" fill="#66768D"/>
</g>
<defs>
<clipPath id="clip0_27_34">
<rect width="18" height="18" fill="white"/>
</clipPath>
</defs>
</svg>
